<svg xmlns="http://www.w3.org/2000/svg" viewBox="0 0 1920 1080"><defs><radialGradient id="light"><stop stop-color="#AE7437" stop-opacity=".6"/><stop offset=".42" stop-color="#51301A" stop-opacity=".22"/><stop offset="1" stop-color="#070A0C"/></radialGradient><linearGradient id="stone" x2="0" y2="1"><stop stop-color="#192025"/><stop offset="1" stop-color="#06080A"/></linearGradient><filter id="blur"><feGaussianBlur stdDeviation="35"/></filter></defs><rect width="1920" height="1080" fill="#06080A"/><rect width="1920" height="1080" fill="url(#light)"/><ellipse cx="1030" cy="470" rx="540" ry="420" fill="#E5A254" opacity=".12" filter="url(#blur)"/><g fill="url(#stone)" stroke="#34332F" stroke-width="5"><path d="M0 0H345L245 1080H0Z"/><path d="M1920 0h-355l115 1080h240Z"/><path d="M350 0h150l-30 830h-180Z"/><path d="M1420 0h155l60 830h-185Z"/></g><g stroke="#A0794A" fill="none" opacity=".22"><path d="M250 965Q960 520 1670 965" stroke-width="13"/><path d="M0 720Q960 140 1920 720" stroke-width="8"/><ellipse cx="960" cy="485" rx="490" ry="475" stroke-width="7"/><ellipse cx="960" cy="485" rx="330" ry="320" stroke-width="3"/></g><path d="M0 900L770 720H1160L1920 900V1080H0Z" fill="#101315"/><path d="M0 1065L835 735M1920 1065L1070 735" stroke="#735536" stroke-width="3" opacity=".45"/></svg>